<svg xmlns="http://www.w3.org/2000/svg" viewBox="0 0 512 512">
  <rect width="512" height="512" fill="#1a3a2a"/>
  <!-- Left floral -->
  <g fill="#c9a84c">
    <path d="M115 310 Q108 280 115 250 Q118 238 122 245 Q118 268 122 295Z" />
    <path d="M115 275 Q95 265 88 252 Q92 247 97 250 Q104 260 115 270Z" />
    <ellipse cx="88" cy="248" rx="12" ry="18" transform="rotate(-30 88 248)" />
    <ellipse cx="76" cy="255" rx="12" ry="18" transform="rotate(20 76 255)" />
    <ellipse cx="80" cy="270" rx="12" ry="18" transform="rotate(70 80 270)" />
    <ellipse cx="96" cy="270" rx="12" ry="18" transform="rotate(120 96 270)" />
    <ellipse cx="100" cy="252" rx="12" ry="18" transform="rotate(-70 100 252)" />
    <circle cx="88" cy="260" r="12" fill="#b8922e" />
    <circle cx="88" cy="260" r="7" fill="#c9a84c" />
    <path d="M94 275 Q80 282 77 298 Q86 294 94 283Z" />
  </g>
  <!-- AISH text -->
  <text x="256" y="310" font-family="Georgia, serif" font-size="180" font-weight="400" fill="#c9a84c" text-anchor="middle" letter-spacing="12">AISH</text>
  <!-- Right floral -->
  <g fill="#c9a84c">
    <path d="M397 310 Q404 280 397 250 Q394 238 390 245 Q394 268 390 295Z" />
    <path d="M397 275 Q417 265 424 252 Q420 247 415 250 Q408 260 397 270Z" />
    <ellipse cx="424" cy="248" rx="12" ry="18" transform="rotate(30 424 248)" />
    <ellipse cx="436" cy="255" rx="12" ry="18" transform="rotate(-20 436 255)" />
    <ellipse cx="432" cy="270" rx="12" ry="18" transform="rotate(-70 432 270)" />
    <ellipse cx="416" cy="270" rx="12" ry="18" transform="rotate(-120 416 270)" />
    <ellipse cx="412" cy="252" rx="12" ry="18" transform="rotate(70 412 252)" />
    <circle cx="424" cy="260" r="12" fill="#b8922e" />
    <circle cx="424" cy="260" r="7" fill="#c9a84c" />
    <path d="M418 275 Q432 282 435 298 Q426 294 418 283Z" />
  </g>
</svg>
